<svg width="48" height="48" viewBox="0 0 48 48" fill="none" xmlns="http://www.w3.org/2000/svg">
<g opacity="0.6">
<path d="M10.6992 25.7285V31.4062C10.6993 31.6655 10.8026 31.9143 10.9873 32.0977C11.1721 32.281 11.4233 32.3838 11.6846 32.3838H19.7207V34.3398H11.6846C10.9007 34.3398 10.148 34.0306 9.59375 33.4805C9.0396 32.9304 8.72857 32.1841 8.72852 31.4062V25.7285H10.6992ZM39.2715 31.4062C39.2714 32.1842 38.9595 32.9304 38.4053 33.4805C37.851 34.0305 37.0992 34.3398 36.3154 34.3398H28.2793V32.3838H36.3154C36.5766 32.3838 36.827 32.2809 37.0117 32.0977C37.1964 31.9143 37.3007 31.6655 37.3008 31.4062V25.7285H39.2715V31.4062ZM19.7207 15.6162H11.6846C11.4233 15.6162 11.1721 15.719 10.9873 15.9023C10.8027 16.0857 10.6992 16.3345 10.6992 16.5938V22.2715H8.72852V16.5938C8.72852 15.8159 9.03966 15.0696 9.59375 14.5195C10.148 13.9694 10.9007 13.6602 11.6846 13.6602H19.7207V15.6162ZM36.3154 13.6602C37.0993 13.6602 37.851 13.9694 38.4053 14.5195C38.9595 15.0697 39.2715 15.8158 39.2715 16.5938V22.2715H37.3008V16.5938C37.3008 16.3344 37.1965 16.0857 37.0117 15.9023C36.827 15.719 36.5767 15.6162 36.3154 15.6162H28.2793V13.6602H36.3154Z" fill="#FAFAFA"/>
</g>
</svg>
