<svg width="48" height="48" viewBox="0 0 48 48" fill="none" xmlns="http://www.w3.org/2000/svg">
<g opacity="0.6">
<path d="M25.4032 9.09947C27.4999 9.12891 28.9548 10.5563 29.0058 12.6258V13.2782C29.0519 14.3797 29.8681 14.8442 30.8681 14.3358C31.1108 14.2137 31.3421 14.067 31.5849 13.9432C33.2778 13.0811 35.1678 13.5701 36.1728 15.1639C36.7376 16.0586 37.2703 16.9779 37.7694 17.91C38.6886 19.626 38.184 21.4801 36.5487 22.5262C36.3846 22.6289 36.2207 22.7172 36.0565 22.8133C34.8333 23.5304 34.8465 24.4719 36.0927 25.1971C38.3258 26.5009 38.8147 28.3333 37.5175 30.5497C37.0923 31.2764 36.6851 32.0163 36.2401 32.7284C35.1728 34.446 33.2666 34.9499 31.4784 33.9999C31.3339 33.9233 31.1974 33.8369 31.0546 33.7538C29.8445 33.0824 29.0284 33.5486 29.0087 34.9208C28.9708 37.6014 27.6508 38.9051 24.953 38.8954C23.9169 38.8954 22.8623 38.9519 21.8476 38.7889C20.1369 38.515 19.083 37.202 19.0155 35.4911C19.004 35.2189 19.0155 34.9462 19.0155 34.6756C18.9694 33.6345 18.1449 33.1731 17.1894 33.6327C16.6278 33.9016 16.0712 34.2227 15.4735 34.371C14.196 34.6969 12.9938 34.3348 12.2401 33.3065C11.3618 32.1121 10.7004 30.7579 9.98623 29.451C9.80398 29.1561 9.82152 28.77 9.78213 28.5711C9.81168 27.2235 10.3078 26.2752 11.288 25.5809C11.4652 25.4555 11.6556 25.346 11.8427 25.2352C13.1957 24.4481 13.2089 23.5516 11.8788 22.7792C11.6917 22.67 11.5027 22.5586 11.3222 22.4364C9.88413 21.4585 9.35228 19.6664 10.1337 18.1297C10.676 17.0644 11.2795 16.0303 11.9403 15.0331C12.8435 13.6561 14.5115 13.1785 16.0565 13.7782C16.3092 13.8809 16.5548 14.0005 16.7909 14.1366C18.2554 14.9577 18.9944 14.5371 19.0087 12.8739C19.0268 10.4913 20.4396 9.10599 22.8583 9.09947C23.7071 9.09947 24.5544 9.08969 25.4032 9.09947ZM25.3983 11.3661C24.6052 11.3449 23.8116 11.3661 23.0185 11.3661C21.646 11.3661 21.3148 11.6923 21.3065 13.0204C21.2852 16.177 18.5788 17.7467 15.8153 16.2069C15.4918 16.0325 15.1433 15.8826 14.6786 15.6561C14.3503 15.9281 13.9726 16.1447 13.7313 16.4706C13.3734 16.9448 13.1339 17.5038 12.8104 18.0057C11.5987 19.8749 12.0221 20.2593 13.5243 21.1424C15.7 22.4201 15.674 25.4798 13.5722 26.8651C13.3227 27.028 13.0535 27.168 12.8007 27.326C12.0437 27.8019 11.8872 28.3416 12.3075 29.119C12.5899 29.6436 12.9315 30.1403 13.204 30.6698C14.0546 32.3174 14.5183 32.5884 16.2343 31.6024C18.4624 30.3218 21.1271 31.8891 21.2997 34.4442C21.3194 34.7424 21.2993 35.0425 21.3124 35.3407C21.3387 36.1555 21.7515 36.6007 22.5741 36.6219C23.5311 36.6464 24.4898 36.6464 25.4452 36.6219C26.2662 36.5991 26.6786 36.1541 26.7099 35.3329C26.7197 35.0347 26.7099 34.7348 26.7099 34.4383C26.7985 32.5104 28.4507 31.0028 30.3817 31.2196C31.1107 31.3027 31.8201 31.6723 32.5048 31.9852C33.3258 32.36 33.8336 32.2717 34.3114 31.496C34.7891 30.7205 35.2617 29.9124 35.7099 29.1044C36.1318 28.3434 35.9679 27.8002 35.2079 27.3114C34.9551 27.1485 34.6791 27.0228 34.4345 26.8534C33.2851 26.0533 32.7594 24.9615 32.9169 23.5633C33.068 22.2172 33.8843 21.3841 35.0321 20.7665C36.0303 20.2287 36.1628 19.6699 35.6063 18.702C35.1729 17.9492 34.7477 17.1895 34.2929 16.453C33.838 15.7164 33.3073 15.6055 32.5536 15.9999C32.2648 16.1514 31.9887 16.3256 31.6933 16.4706C31.2134 16.7064 30.6848 16.8282 30.1493 16.826C29.6136 16.8238 29.0854 16.6978 28.6073 16.4579C28.1292 16.2179 27.7138 15.8701 27.3944 15.4432C27.0753 15.0164 26.8605 14.5214 26.7675 13.9979C26.7173 13.5653 26.6988 13.1294 26.7118 12.6942C26.6822 11.8275 26.265 11.3906 25.3983 11.3661ZM24.0224 19.0389C25.0096 19.0428 25.9739 19.3365 26.7929 19.8836C27.6118 20.4308 28.2487 21.2069 28.6239 22.1131C28.9991 23.0196 29.0962 24.0167 28.9013 24.9774C28.7064 25.9378 28.2284 26.8191 27.5292 27.5106C26.8298 28.2023 25.9392 28.6732 24.9706 28.8631C24.0021 29.053 22.9986 28.9536 22.0868 28.578C21.1751 28.2024 20.3959 27.5674 19.8476 26.7528C19.2992 25.9379 19.0061 24.9797 19.0058 23.9999C19.0105 22.6826 19.5412 21.4209 20.4813 20.4911C21.4216 19.5612 22.695 19.0389 24.0224 19.0389ZM24.0038 21.3202C23.4705 21.3228 22.9498 21.4822 22.5077 21.7782C22.0655 22.0742 21.7217 22.4944 21.5194 22.9842C21.3173 23.474 21.2652 24.0123 21.371 24.5311C21.4767 25.0499 21.7351 25.526 22.1132 25.8993C22.4913 26.2725 22.9727 26.5266 23.496 26.6288C24.0194 26.7309 24.5621 26.6769 25.0546 26.4735C25.547 26.2701 25.9677 25.9257 26.2636 25.4852C26.5593 25.0448 26.717 24.5272 26.7167 23.9979C26.718 23.6448 26.6485 23.295 26.5126 22.9686C26.3766 22.6423 26.1768 22.3457 25.9247 22.0965C25.6724 21.8473 25.3725 21.6499 25.0429 21.5165C24.7132 21.383 24.3598 21.3162 24.0038 21.3192V21.3202Z" fill="#FAFAFA"/>
</g>
</svg>
