<svg width="48" height="48" viewBox="0 0 48 48" fill="none" xmlns="http://www.w3.org/2000/svg">
<g opacity="0.6">
<path d="M25.1143 14.3943C25.3854 14.2312 26.209 13.7424 26.9756 14.1755C27.4681 14.4574 27.7281 14.9902 27.7266 15.7527V32.6775C27.706 32.9023 27.6321 33.1196 27.5117 33.3112C27.3914 33.5027 27.2275 33.6637 27.0332 33.781C26.7923 33.9259 26.5152 34.002 26.2334 33.9997C26.0459 33.9997 25.8602 33.964 25.6855 33.8962C25.3106 33.7627 24.9482 33.5963 24.6035 33.3982L23.3916 32.6657C21.9138 31.7808 20.403 30.8734 18.958 29.8581C17.8234 29.0612 16.7456 28.7373 15.4648 28.8025C14.4797 28.8546 13.5321 28.9015 12.9033 28.3132C12.2747 27.7249 12.2832 26.8466 12.2832 25.7468V24.5066C12.2832 23.5776 12.2925 22.6175 12.2695 21.6804C12.2433 20.6048 12.659 20.0144 13.0137 19.7097C13.3306 19.4359 13.8875 19.1412 14.7412 19.2829C16.7838 19.6218 18.2928 18.7225 20.3633 17.3112C21.6277 16.4491 22.9562 15.6667 24.2402 14.9089L25.1143 14.3943ZM25.2451 16.5876C23.9874 17.3291 22.687 18.0951 21.4785 18.9196C19.564 20.2234 17.3932 21.7027 14.418 21.2009C14.3796 21.1932 14.3399 21.1899 14.3008 21.1911C14.2501 21.328 14.2297 21.4744 14.2402 21.6198C14.2649 22.5863 14.2598 23.563 14.2549 24.5066V25.7351C14.2471 26.107 14.2608 26.479 14.2959 26.8493C14.6519 26.8708 15.0092 26.8708 15.3652 26.8493C15.5113 26.8379 15.6525 26.8386 15.792 26.8386H15.7939C17.3472 26.8387 18.7266 27.2967 20.1025 28.2614C21.4785 29.2261 22.9731 30.1269 24.4131 30.9939L25.6328 31.7312C25.6705 31.7555 25.7113 31.7768 25.7539 31.7995V16.2878L25.2451 16.5876ZM31.9316 16.4538C36.9955 19.9855 37.0049 28.2402 31.918 31.6267L31.0215 30.4861C32.9788 28.77 34.1722 26.6949 34.1689 24.0466C34.1656 21.4228 33.0183 19.3626 31.0068 17.6091L31.9316 16.4538ZM29.4766 18.6023C33.2036 20.7732 33.2614 26.6953 29.5342 29.5505L28.665 28.3991C31.5483 25.5391 31.2694 22.1705 28.6553 19.695L29.4766 18.6023Z" fill="#FAFAFA"/>
</g>
</svg>
