<svg width="160" height="47" viewBox="0 0 160 47" fill="none" xmlns="http://www.w3.org/2000/svg">
<path d="M58.7342 9.57498C58.7342 9.80599 58.6802 10.0344 58.5766 10.2415L45.6945 35.831C45.4608 36.2621 45.1661 36.655 44.8226 36.9985C43.9073 37.9136 42.6408 38.481 41.2422 38.481C40.2235 38.481 39.2746 38.1791 38.4815 37.6614C38.1859 37.4694 37.9115 37.2454 37.6619 36.9985C37.291 36.6267 36.9759 36.1956 36.7334 35.723L34.2833 30.8213C33.9311 30.1158 32.9238 30.1149 32.568 30.8194L30.0454 35.831C29.8117 36.2621 29.5161 36.655 29.1736 36.9985C28.9248 37.2463 28.6495 37.4694 28.3539 37.6614C27.5599 38.1791 26.6119 38.481 25.5932 38.481C24.1946 38.481 22.9281 37.9136 22.0129 36.9985C21.6411 36.6267 21.326 36.1956 21.0844 35.723L8.19597 9.94849C8.13932 9.83255 8.10126 9.70509 8.10126 9.57675V9.57498C8.10126 8.76156 8.7598 8.10126 9.57501 8.10126H15.4664C16.4852 8.10126 17.434 8.40309 18.2289 8.92088C18.5246 9.11295 18.7981 9.33688 19.0468 9.5856C19.4185 9.95647 19.7337 10.3866 19.9753 10.8592L24.7346 20.3786C25.0887 21.085 26.0968 21.085 26.45 20.3786L27.7555 17.7676L23.9274 10.1122C23.4671 9.18819 24.1371 8.10126 25.1701 8.10126H31.1164C31.5935 8.10126 32.0555 8.16765 32.4937 8.29156C33.338 8.53055 34.0931 8.98195 34.6967 9.58472C35.0685 9.95557 35.3827 10.3857 35.6252 10.8584L40.3846 20.3778C40.7368 21.0842 41.7459 21.0842 42.0999 20.3778L43.1763 18.2278L46.8601 10.8592C47.2638 10.0715 47.8684 9.40238 48.6066 8.92088C49.4014 8.40309 50.3503 8.10126 51.369 8.10126H57.2605C58.0747 8.10126 58.7342 8.76156 58.7342 9.57498Z" fill="#FAFAFA"/>
<path d="M65.8126 8.10785V14.2405H65.0348V8.10785H65.8126ZM70.2935 10.5301V9.89823H71.0388V14.2405H70.2935V13.6248C69.9046 14.1028 69.3942 14.3458 68.7623 14.3458C68.1385 14.3458 67.62 14.1271 67.2069 13.6815C66.7937 13.2359 66.5912 12.6932 66.5912 12.037C66.5912 11.3889 66.7937 10.8542 67.2069 10.4329C67.62 10.0035 68.1385 9.79291 68.7623 9.79291C69.378 9.79291 69.8884 10.036 70.2935 10.5301ZM70.3421 12.0613C70.3421 11.6319 70.2044 11.2592 69.9289 10.9595C69.6535 10.6597 69.297 10.5058 68.8514 10.5058C68.4059 10.5058 68.0494 10.6597 67.7821 10.9595C67.5147 11.2592 67.377 11.6319 67.377 12.0694C67.377 12.5068 67.5147 12.8795 67.7821 13.1792C68.0494 13.479 68.4059 13.6329 68.8514 13.6329C69.297 13.6329 69.6535 13.479 69.9289 13.1792C70.2044 12.8795 70.3421 12.5068 70.3421 12.0613ZM74.393 9.79291C75.0087 9.79291 75.5191 10.0116 75.9323 10.4572C76.3454 10.8947 76.556 11.4294 76.556 12.0694C76.556 12.7094 76.3454 13.2441 75.9323 13.6896C75.5191 14.1271 75.0087 14.3458 74.3849 14.3458C73.7611 14.3458 73.2507 14.1028 72.8619 13.6086V14.2405H72.0841V8.10785H72.8619V10.5544C73.2588 10.0441 73.7692 9.79291 74.393 9.79291ZM74.2958 13.6167C74.7333 13.6167 75.0897 13.4709 75.3571 13.1711C75.6325 12.8714 75.7702 12.4987 75.7702 12.0613C75.7702 11.6319 75.6325 11.2673 75.3571 10.9676C75.0897 10.6678 74.7333 10.522 74.2958 10.522C73.8502 10.522 73.4938 10.6678 73.2264 10.9676C72.9591 11.2673 72.8295 11.6319 72.8295 12.0613C72.8295 12.5068 72.9591 12.8714 73.2264 13.1711C73.4938 13.4709 73.8502 13.6167 74.2958 13.6167ZM78.5409 14.3377C77.8928 14.3377 77.2609 14.0218 76.9287 13.398L77.4877 12.9686C77.7388 13.4304 78.1682 13.6572 78.5652 13.6572C79.0269 13.6572 79.3348 13.3899 79.3348 13.0577C79.3348 12.8309 79.2052 12.6446 78.9378 12.5068C78.8487 12.4582 78.6624 12.3772 78.395 12.2638C78.1277 12.1504 77.9495 12.0694 77.8604 12.0208C77.4148 11.7777 77.1961 11.4294 77.1961 10.9676C77.1961 10.6192 77.3257 10.3276 77.5849 10.1008C77.8441 9.86582 78.1844 9.75241 78.6138 9.75241C79.1647 9.75241 79.6993 9.98734 79.991 10.441L79.4968 10.9109C79.2619 10.5787 78.954 10.4086 78.5652 10.4086C78.1763 10.4086 77.9414 10.6435 77.9414 10.9352C77.9414 11.162 78.0629 11.3322 78.3059 11.4456L78.7839 11.6562C79.0431 11.7615 79.2376 11.8506 79.3672 11.9235C79.8614 12.1747 80.1044 12.5392 80.1044 13.0172C80.1044 13.3899 79.9586 13.7058 79.6669 13.957C79.3753 14.2081 79.0026 14.3377 78.5409 14.3377Z" fill="white"/>
<path d="M67.4754 38.4474H65.0451V20.4869H76.0304V22.8444H67.4754V28.1669H74.9367V30.5244H67.4754V38.4474ZM89.8002 31.6909C89.8002 31.8611 89.7759 32.2499 89.7273 32.8818H79.3496C79.7384 35.0935 81.1967 36.6003 83.9187 36.6003C85.4741 36.6003 87.2726 36.017 88.4635 35.1421L89.4599 36.9163C88.1718 37.9127 86.0331 38.739 83.8701 38.739C78.9607 38.739 76.9192 35.2636 76.9192 31.8854C76.9192 29.9168 77.5268 28.3127 78.742 27.0246C79.9815 25.7365 81.5612 25.1046 83.5055 25.1046C85.3526 25.1046 86.8594 25.6879 88.026 26.8788C89.2169 28.0697 89.8002 29.6737 89.8002 31.6909ZM79.3496 30.8646H87.3941C87.2726 28.6044 85.6443 27.1704 83.5055 27.1704C81.3668 27.1704 79.7384 28.7016 79.3496 30.8646ZM95.714 38.739C93.7697 38.739 91.874 37.7912 90.8776 35.9198L92.5545 34.6317C93.3079 36.017 94.5961 36.6975 95.7869 36.6975C97.1723 36.6975 98.0958 35.8955 98.0958 34.899C98.0958 34.2185 97.7069 33.6595 96.9049 33.2464C96.6376 33.1006 96.0786 32.8575 95.2766 32.5173C94.4745 32.177 93.9399 31.934 93.6725 31.7882C92.3358 31.059 91.6796 30.014 91.6796 28.6287C91.6796 27.5836 92.0685 26.7087 92.8462 26.0282C93.6239 25.3233 94.6447 24.9831 95.9328 24.9831C97.5854 24.9831 99.1895 25.6879 100.064 27.0489L98.5819 28.4585C97.8771 27.4621 96.9535 26.9517 95.7869 26.9517C94.6204 26.9517 93.9155 27.6565 93.9155 28.5314C93.9155 29.2119 94.2801 29.7223 95.0092 30.0626L96.4431 30.6945C97.2209 31.0104 97.8042 31.2778 98.193 31.4965C99.6755 32.2499 100.405 33.3436 100.405 34.7775C100.405 35.8955 99.9672 36.8433 99.0923 37.5968C98.2173 38.3502 97.0993 38.739 95.714 38.739ZM110.132 35.8712L111.007 37.6697C110.059 38.3988 108.916 38.7633 107.531 38.7633C104.785 38.7633 103.375 36.9892 103.375 33.8783V27.4135H101.066V25.4206H103.399V20.8028H105.684V25.4206H110.302V27.4135H105.684V34.0484C105.684 35.774 106.389 36.6246 107.798 36.6246C108.552 36.6246 109.33 36.3816 110.132 35.8712ZM113.601 23.5735C112.629 23.5735 111.9 22.8687 111.9 21.8965C111.9 20.9487 112.629 20.2681 113.601 20.2681C114.5 20.2681 115.254 20.9973 115.254 21.8965C115.254 22.8687 114.5 23.5735 113.601 23.5735ZM114.719 25.4206V38.4474H112.386V25.4206H114.719ZM122.937 35.1664L126.874 25.4206H129.45L123.714 38.4231H122.086L116.35 25.4206H118.951L122.937 35.1664ZM140.824 27.3163V25.4206H143.06V38.4474H140.824V36.6003C139.658 38.0342 138.127 38.7633 136.231 38.7633C134.359 38.7633 132.804 38.1071 131.565 36.7704C130.325 35.4337 129.717 33.8054 129.717 31.8368C129.717 29.8925 130.325 28.2884 131.565 27.0246C132.804 25.7365 134.359 25.1046 136.231 25.1046C138.078 25.1046 139.609 25.8337 140.824 27.3163ZM140.97 31.9097C140.97 30.6216 140.557 29.5036 139.731 28.6044C138.904 27.7051 137.835 27.2433 136.498 27.2433C135.162 27.2433 134.092 27.7051 133.29 28.6044C132.488 29.5036 132.075 30.6216 132.075 31.934C132.075 33.2464 132.488 34.3644 133.29 35.2636C134.092 36.1628 135.162 36.6246 136.498 36.6246C137.835 36.6246 138.904 36.1628 139.731 35.2636C140.557 34.3644 140.97 33.2464 140.97 31.9097ZM148.53 20.0494V38.4474H146.196V20.0494H148.53Z" fill="white"/>
</svg>
