<svg width="119" height="78" viewBox="0 0 119 78" fill="none" xmlns="http://www.w3.org/2000/svg">
<path d="M118.312 2.90067C118.405 3.44024 118.371 3.99531 118.212 4.5207L98.4118 69.468C98.0393 70.5688 97.5089 71.6051 96.8449 72.5453C95.0752 75.0509 92.3449 76.8853 89.0785 77.4475C86.699 77.8571 84.3614 77.5337 82.3009 76.6431C81.5332 76.3134 80.8023 75.9007 80.12 75.4242C79.1043 74.7051 78.195 73.825 77.4385 72.8185L69.7454 62.3548C68.639 60.8487 66.286 61.2516 65.7382 63.0403L61.8611 75.7596C61.4886 76.8604 60.9561 77.8971 60.2941 78.8369C59.8128 79.5158 59.2595 80.1474 58.6462 80.7149C57 82.2435 54.9072 83.3295 52.5277 83.7391C49.2613 84.3014 46.0748 83.4855 43.5692 81.7158C42.5515 80.997 41.6422 80.1169 40.8878 79.1101L0.422613 24.0916C0.243686 23.8436 0.103548 23.5612 0.0519496 23.2614L0.0512372 23.2573C-0.275792 21.3574 0.99685 19.5504 2.90088 19.2227L16.6612 16.8541C19.0407 16.4445 21.3782 16.768 23.4429 17.6578C24.2106 17.9875 24.9395 18.4006 25.6204 18.8815C26.6378 19.5983 27.5467 20.4763 28.3011 21.4831L43.2445 41.8036C44.3554 43.311 46.7101 42.9056 47.251 41.1139L49.2506 34.4905L37.2315 18.1494C35.7849 16.1761 36.9129 13.3681 39.3255 12.9528L53.214 10.5621C54.3283 10.3703 55.4342 10.3396 56.5073 10.4529C58.5757 10.6716 60.5206 11.4223 62.1729 12.5875C63.1902 13.3042 64.0971 14.1826 64.8536 15.1891L79.7969 35.5096C80.9037 37.0177 83.2605 36.612 83.8035 34.8199L85.453 29.3657L91.0948 10.6742C91.7208 8.67202 92.8638 6.86607 94.3944 5.44467C96.0427 3.91572 98.1376 2.82928 100.517 2.41969L114.277 0.0510877C116.179 -0.276304 117.985 1.0008 118.312 2.90067Z" fill="#FAFAFA" fill-opacity="0.1"/>
</svg>
